<svg
            width="78"
            height="78"
            viewBox="0 0 78 78"
            fill="none"
            xmlns="http://www.w3.org/2000/svg"
          >
            <circle cx="39" cy="39" r="24" fill="white" />
            <circle cx="39" cy="39" r="39" fill="white" fill-opacity="0.43" />
            <g clip-path="url(#clip0_1_419)">
              <path
                d="M35.2052 29.6756C34.9476 29.663 34.6914 29.7185 34.4622 29.8364H34.0155L34.2339 29.982C34.0914 30.0927 33.9699 30.2291 33.8763 30.385C33.7396 30.6124 33.6672 30.8725 33.6667 31.1378V31.1387V46.8616V46.8625C33.6672 47.1278 33.7396 47.388 33.8763 47.6153L34.3048 47.3578L33.8763 47.6153C34.0129 47.8427 34.2087 48.0288 34.4427 48.1537C34.6767 48.2786 34.9403 48.3377 35.2052 48.3247L35.1807 47.8253L35.2052 48.3247C35.4702 48.3117 35.7267 48.2271 35.9473 48.0798L47.7378 40.2212C47.939 40.0873 48.1039 39.9058 48.218 39.6927C48.3322 39.4797 48.3919 39.2418 48.3919 39.0002C48.3919 38.7585 48.3322 38.5206 48.218 38.3076C48.1039 38.0946 47.939 37.913 47.7378 37.7792L37.3194 30.8364H37.3202L35.9473 29.9205C35.7267 29.7733 35.4702 29.6886 35.2052 29.6756ZM39 62.6668C25.9289 62.6668 15.3333 52.0713 15.3333 39.0002C15.3333 25.9291 25.9289 15.3335 39 15.3335C52.0711 15.3335 62.6667 25.9291 62.6667 39.0002C62.6667 52.0713 52.0711 62.6668 39 62.6668Z"
                fill="#57007B"
                stroke="white"
              />
            </g>
            <defs>
              <clipPath id="clip0_1_419">
                <rect
                  width="58"
                  height="58"
                  fill="white"
                  transform="translate(10 10)"
                />
              </clipPath>
            </defs>
          </svg>